<svg width="256" height="256" viewBox="0 0 256 256" fill="none" xmlns="http://www.w3.org/2000/svg">
<path d="M256 0H0V256H256V0Z" fill="#292666"/>
<path d="M137.94 105.41L214.09 29.26H194.59C187.38 29.26 180.46 32.13 175.36 37.22L107.18 105.4L175.36 173.58C180.46 178.68 187.38 181.54 194.59 181.54H214.09L137.94 105.41Z" fill="#6EC9CD"/>
<path d="M85.8499 51.02H128.55C135.76 51.02 142.68 48.15 147.78 43.06L161.57 29.27H85.9699C61.9799 29.27 42.0899 48.46 41.9099 72.45C41.7299 96.63 61.2799 116.29 85.4199 116.29H107.18L96.2999 105.41L107.18 94.53H85.4199C73.5499 94.53 63.8899 85.02 63.6699 73.2C63.4299 61.01 73.6499 51.02 85.8499 51.02Z" fill="white"/>
<path d="M137.88 147C134.47 154.55 126.88 159.81 118.05 159.81H74.9299C67.7199 159.81 60.7999 162.68 55.6999 167.77L41.8999 181.56H118.05C132.85 181.56 145.9 174.17 153.76 162.88L137.88 147Z" fill="white"/>
<path fill-rule="evenodd" clip-rule="evenodd" d="M168.293 188H175.527V226.035C172.322 226.75 168.83 227.221 164.827 227.255C156.258 227.255 149.468 223.426 149.206 213.312C149.342 208.233 151.189 204.733 154.206 202.315C158.786 199.148 163.502 198.897 168.293 200.281V188ZM168.293 206.629C165.874 205.396 161.777 205.588 160.088 206.596C157.777 207.853 156.671 210.034 156.551 213.019C156.589 216.649 157.938 219.113 160.599 220.412C162.895 221.282 165.671 221.376 168.293 220.74V206.629Z" fill="white"/>
<path fill-rule="evenodd" clip-rule="evenodd" d="M77.873 226.823C86.2072 226.823 92.9379 222.747 92.8915 212.653C93.0337 202.66 85.5371 198.681 77.0572 199.142C73.0955 199.391 69.8664 200.357 66.8455 201.417V237H74.0466V206.114C77.285 205.356 80.3139 205.287 82.8828 206.737C84.7862 208.112 85.9398 210.36 85.7689 213.308C85.31 218.539 82.0303 220.399 77.873 220.554V226.823Z" fill="white"/>
<path fill-rule="evenodd" clip-rule="evenodd" d="M107.814 198.987C117.753 198.906 120.42 204.952 120.046 216.174H102.4C103.313 221.722 108.816 223.304 118.508 218.915V225.532C103.035 230.252 95.7494 225.713 95.248 213.501C95.248 203.891 99.461 199.044 107.814 198.987ZM107.986 205.346C111.274 205.566 112.384 207.035 112.76 210.493H102.4C102.879 207.641 104.033 205.242 107.986 205.346Z" fill="white"/>
<path fill-rule="evenodd" clip-rule="evenodd" d="M134.79 199.108C144.729 199.027 147.396 205.074 147.022 216.295H129.376C130.29 221.843 135.793 223.425 145.485 219.036V225.653C130.011 230.373 122.726 225.834 122.224 213.622C122.224 204.012 126.437 199.165 134.79 199.108ZM134.962 205.467C138.251 205.687 139.36 207.156 139.736 210.614H129.376C129.856 207.761 131.009 205.363 134.962 205.467Z" fill="white"/>
<path fill-rule="evenodd" clip-rule="evenodd" d="M53.9071 199.108C57.0181 199.085 59.7481 199.823 62.0973 201.324V207.8C57.9141 204.538 51.4541 203.74 50.9103 206.944C49.8289 212.843 64.7814 206.984 63.6783 219.752C62.9377 225.211 58.7563 227.088 53.3351 227.255C50.0102 227.353 46.9428 226.781 44.2523 225.228V218.562C48.8835 221.634 55.5782 222.698 56.5258 219.515C57.8212 214.15 43.2283 218.292 44.032 207.657C44.1491 202.331 47.4408 199.481 53.9071 199.108Z" fill="white"/>
<path fill-rule="evenodd" clip-rule="evenodd" d="M177.523 199.61H185.095L190.999 216.174L196.809 199.61H204.332L191.475 236.99H183.857L187.066 227.255L177.523 199.61Z" fill="white"/>
</svg>
