<svg xmlns="http://www.w3.org/2000/svg" viewBox="0 0 124 40"><path d="M25.19,20l20-20H40.05a7.11,7.11,0,0,0-5,2.09L17.12,20,35,37.86a7.11,7.11,0,0,0,5,2.09h5.12Z" style="fill:#6ec9cd"/><path d="M11.53,5.71h11.2a7.12,7.12,0,0,0,5-2.09L31.39,0H11.56a11.42,11.42,0,1,0-.15,22.83h5.71L14.27,20l2.85-2.85H11.41a5.7,5.7,0,0,1-5.7-5.59A5.8,5.8,0,0,1,11.53,5.71Z" style="fill:#292666"/><path d="M25.18,30.88A5.72,5.72,0,0,1,20,34.24H8.66a7.12,7.12,0,0,0-5,2.09L0,40H20a11.38,11.38,0,0,0,9.37-4.9Z" style="fill:#292666"/><path d="M44.44,26.37a6.73,6.73,0,0,1-2.2-1l1-2.16a6.68,6.68,0,0,0,1.89.94,7.26,7.26,0,0,0,2.19.35,3.52,3.52,0,0,0,1.8-.36,1.1,1.1,0,0,0,.58-1,.9.9,0,0,0-.35-.73,2.53,2.53,0,0,0-.88-.47c-.36-.12-.84-.25-1.45-.39a19.82,19.82,0,0,1-2.32-.67,3.73,3.73,0,0,1-1.54-1.08,2.88,2.88,0,0,1-.64-2,3.41,3.41,0,0,1,.58-1.95,3.94,3.94,0,0,1,1.75-1.39A7.22,7.22,0,0,1,47.69,14a9.37,9.37,0,0,1,2.31.28,7,7,0,0,1,2,.81l-.88,2.17a7,7,0,0,0-3.43-1,3.18,3.18,0,0,0-1.77.39,1.19,1.19,0,0,0-.57,1,1,1,0,0,0,.66.94,10,10,0,0,0,2,.61,20.17,20.17,0,0,1,2.31.67A3.74,3.74,0,0,1,51.86,21a2.83,2.83,0,0,1,.65,2,3.4,3.4,0,0,1-.59,1.93,4,4,0,0,1-1.78,1.38,7.19,7.19,0,0,1-2.87.51A10.23,10.23,0,0,1,44.44,26.37Z" style="fill:#292666"/><path d="M56.1,26.07a4.6,4.6,0,0,1-1.86-1.74,5.09,5.09,0,0,1,0-5,4.51,4.51,0,0,1,1.86-1.73,6,6,0,0,1,5.37,0,4.54,4.54,0,0,1,1.85,1.73,5.09,5.09,0,0,1,0,5,4.63,4.63,0,0,1-1.85,1.74,6.12,6.12,0,0,1-5.37,0Zm4.43-2.35a2.67,2.67,0,0,0,.68-1.91,2.7,2.7,0,0,0-.68-1.92,2.5,2.5,0,0,0-3.49,0,2.66,2.66,0,0,0-.69,1.92A2.63,2.63,0,0,0,57,23.72a2.47,2.47,0,0,0,3.49,0Z" style="fill:#292666"/><path d="M68.85,17.27h2.43v2.12H68.92v7.16H66.16V19.39H64.7V17.27h1.46v-.42a3.45,3.45,0,0,1,1-2.58,3.69,3.69,0,0,1,2.7-.95,5,5,0,0,1,1.18.13,2.9,2.9,0,0,1,.92.38l-.72,2a1.85,1.85,0,0,0-1.11-.34c-.84,0-1.25.46-1.25,1.38Z" style="fill:#292666"/><path d="M78.78,26.09a2.79,2.79,0,0,1-1,.45,5,5,0,0,1-1.24.15,3.68,3.68,0,0,1-2.62-.86A3.3,3.3,0,0,1,73,23.29v-3.9H71.53V17.27H73V15h2.75v2.31h2.37v2.12H75.74v3.86a1.34,1.34,0,0,0,.31.93,1.15,1.15,0,0,0,.88.33A1.76,1.76,0,0,0,78,24.15Z" style="fill:#292666"/><path d="M95.4,17.06,92,26.55H89.31l-2.13-5.89L85,26.55H82.33L78.9,17.06h2.6l2.24,6.42,2.33-6.42h2.32l2.26,6.42L93,17.06Z" style="fill:#292666"/><path d="M103.59,18a4,4,0,0,1,1.18,3.17v5.41h-2.58V25.37a3.07,3.07,0,0,1-2.89,1.32,4.47,4.47,0,0,1-1.9-.37,2.74,2.74,0,0,1-1.22-1,2.62,2.62,0,0,1-.43-1.48,2.48,2.48,0,0,1,1-2.08A5,5,0,0,1,99.83,21H102a1.79,1.79,0,0,0-.55-1.39,2.43,2.43,0,0,0-1.64-.48,4.74,4.74,0,0,0-1.49.24,3.78,3.78,0,0,0-1.25.64l-1-1.92A5.7,5.7,0,0,1,98,17.22a8.28,8.28,0,0,1,2.23-.3A5,5,0,0,1,103.59,18Zm-2.35,6.54a1.79,1.79,0,0,0,.78-1v-1h-1.89c-1.13,0-1.7.37-1.7,1.11a1,1,0,0,0,.42.84,1.84,1.84,0,0,0,1.14.31A2.36,2.36,0,0,0,101.24,24.51Z" style="fill:#292666"/><path d="M111.22,17.27a5,5,0,0,1,1.93-.35v2.54l-.62,0a2.52,2.52,0,0,0-1.85.66,2.65,2.65,0,0,0-.67,2v4.48h-2.75V17.06h2.62v1.25A3.1,3.1,0,0,1,111.22,17.27Z" style="fill:#292666"/><path d="M124,22.58h-7.18a2.24,2.24,0,0,0,.91,1.4,3.08,3.08,0,0,0,1.8.51,3.58,3.58,0,0,0,1.32-.22,3.24,3.24,0,0,0,1.07-.7l1.46,1.59a4.93,4.93,0,0,1-3.92,1.53,6.18,6.18,0,0,1-2.84-.62,4.58,4.58,0,0,1-1.9-1.74,4.75,4.75,0,0,1-.67-2.52,4.89,4.89,0,0,1,.66-2.52,4.55,4.55,0,0,1,1.82-1.74,5.59,5.59,0,0,1,5.1,0,4.34,4.34,0,0,1,1.78,1.72,5.11,5.11,0,0,1,.64,2.6S124,22.12,124,22.58Zm-6.44-3a2.22,2.22,0,0,0-.78,1.45h4.68a2.33,2.33,0,0,0-.78-1.44,2.31,2.31,0,0,0-1.55-.54A2.37,2.37,0,0,0,117.51,19.53Z" style="fill:#292666"/></svg>